<svg width="135mm" height="85mm" viewBox="0 0 135000 85000" xmlns="http://www.w3.org/2000/svg"><defs><radialGradient cx="104000" cy="30000" r="2020" gradientUnits="userSpaceOnUse" id="color-1"><stop offset="1" stop-color="#303f9f"/><stop offset="1" stop-color="#303f9f"/></radialGradient><radialGradient cx="96000" cy="30000" r="2020" gradientUnits="userSpaceOnUse" id="color-2"><stop offset="1" stop-color="#303f9f"/><stop offset="1" stop-color="#303f9f"/></radialGradient><radialGradient cx="74000" cy="30000" r="2020" gradientUnits="userSpaceOnUse" id="color-3"><stop offset="1" stop-color="#303f9f"/><stop offset="1" stop-color="#303f9f"/></radialGradient><radialGradient cx="66000" cy="30000" r="2020" gradientUnits="userSpaceOnUse" id="color-4"><stop offset="1" stop-color="#303f9f"/><stop offset="1" stop-color="#303f9f"/></radialGradient><radialGradient cx="44000" cy="30000" r="2020" gradientUnits="userSpaceOnUse" id="color-5"><stop offset="1" stop-color="#303f9f"/><stop offset="1" stop-color="#303f9f"/></radialGradient><radialGradient cx="36000" cy="30000" r="2020" gradientUnits="userSpaceOnUse" id="color-6"><stop offset="1" stop-color="#303f9f"/><stop offset="1" stop-color="#303f9f"/></radialGradient><radialGradient cx="40000" cy="20000" r="2020" gradientUnits="userSpaceOnUse" id="color-7"><stop offset="1" stop-color="#303f9f"/><stop offset="1" stop-color="#303f9f"/></radialGradient><radialGradient cx="70000" cy="20000" r="2020" gradientUnits="userSpaceOnUse" id="color-8"><stop offset="1" stop-color="#303f9f"/><stop offset="1" stop-color="#303f9f"/></radialGradient><radialGradient cx="100000" cy="20000" r="2020" gradientUnits="userSpaceOnUse" id="color-9"><stop offset="1" stop-color="#303f9f"/><stop offset="1" stop-color="#303f9f"/></radialGradient><radialGradient cx="100000" cy="65000" r="2020" gradientUnits="userSpaceOnUse" id="color-10"><stop offset="1" stop-color="#303f9f"/><stop offset="1" stop-color="#303f9f"/></radialGradient><radialGradient cx="70000" cy="65000" r="2020" gradientUnits="userSpaceOnUse" id="color-11"><stop offset="1" stop-color="#303f9f"/><stop offset="1" stop-color="#303f9f"/></radialGradient><radialGradient cx="40000" cy="65000" r="2020" gradientUnits="userSpaceOnUse" id="color-12"><stop offset="1" stop-color="#303f9f"/><stop offset="1" stop-color="#303f9f"/></radialGradient></defs><g fill="none" fill-rule="nonzero" stroke="none" stroke-width="none" stroke-linecap="butt" stroke-linejoin="miter" stroke-miterlimit="10" stroke-dasharray="" stroke-dashoffset="0" font-family="none" font-weight="none" font-size="none" text-anchor="none" style="mix-blend-mode: normal"><path d="M40400,55800v600h-273v400h373v1000h-1000v-1000h373v-400h-273v-600z" fill="#303f9f" stroke-width="1"/><path d="M100400,55800v600h-273v400h373v1000h-1000v-1000h373v-400h-273v-600z" fill="#303f9f" stroke-width="1"/><path d="M70400,55800v600h-273v400h373v1000h-1000v-1000h373v-400h-273v-600z" fill="#303f9f" stroke-width="1"/><path d="M98799,36000h1631v800h-1630v1230h2461l0,0.00035c781.02329,0.54016 1414,633.85009 1414,1414.99965c0,781.14956 -632.97671,1414.45949 -1414,1414.99965v0.00035h-2461v1230h2461l0,0.00035c781.02329,0.54016 1414,633.85009 1414,1414.99965c0,781.14956 -632.97671,1414.45949 -1414,1414.99965v0.00035h-2461v1230h2461l0,0.00035c781.02329,0.54016 1414,633.85009 1414,1414.99965c0,781.14956 -632.97671,1414.45949 -1414,1414.99965v0.00035h-2461v1230h2461l0,0.00035c781.02329,0.54016 1414,633.85009 1414,1414.99965c0,781.14956 -632.97671,1414.45949 -1414,1414.99965v0.00035h-1631v-800h1630l0,-1230h-2461l0,-0.00035c-781.02329,-0.54016 -1414,-633.85009 -1414,-1414.99965c0,-781.14956 632.97671,-1414.45949 1414,-1414.99965v-0.00035h2461l0,-1230h-2461l0,-0.00035c-781.02329,-0.54016 -1414,-633.85009 -1414,-1414.99965c0,-781.14956 632.97671,-1414.45949 1414,-1414.99965v-0.00035h2461l0,-1230h-2461l0,-0.00035c-781.02329,-0.54016 -1414,-633.85009 -1414,-1414.99965c0,-781.14956 632.97671,-1414.45949 1414,-1414.99965v-0.00035h2461l0,-1230h-2461l0,-0.00035c-781.02329,-0.54016 -1414,-633.85009 -1414,-1414.99965c0,-781.14956 632.97671,-1414.45949 1414,-1414.99965zM98800,36800c-339.65512,0 -615,275.34488 -615,615c0,339.65512 275.34488,615 615,615zM101260,40060c339.65512,0 615,-275.34488 615,-615c0,-339.65512 -275.34488,-615 -615,-615zM98800,40860c-339.65512,0 -615,275.34488 -615,615c0,339.65512 275.34488,615 615,615zM101260,44120c339.65512,0 615,-275.34488 615,-615c0,-339.65512 -275.34488,-615 -615,-615zM98800,44920c-339.65512,0 -615,275.34488 -615,615c0,339.65512 275.34488,615 615,615zM101260,48180c339.65512,0 615,-275.34488 615,-615c0,-339.65512 -275.34488,-615 -615,-615zM98800,48980c-339.65512,0 -615,275.34488 -615,615c0,339.65512 275.34488,615 615,615zM101260,52240c339.65512,0 615,-275.34488 615,-615c0,-339.65512 -275.34488,-615 -615,-615z" fill="#303f9f" stroke-width="1"/><path d="M68799,36000h1631v800h-1630v1230h2461l0,0.00035c781.02329,0.54016 1414,633.85009 1414,1414.99965c0,781.14956 -632.97671,1414.45949 -1414,1414.99965v0.00035h-2461v1230h2461l0,0.00035c781.02329,0.54016 1414,633.85009 1414,1414.99965c0,781.14956 -632.97671,1414.45949 -1414,1414.99965v0.00035h-2461v1230h2461l0,0.00035c781.02329,0.54016 1414,633.85009 1414,1414.99965c0,781.14956 -632.97671,1414.45949 -1414,1414.99965v0.00035h-2461v1230h2461l0,0.00035c781.02329,0.54016 1414,633.85009 1414,1414.99965c0,781.14956 -632.97671,1414.45949 -1414,1414.99965v0.00035h-1631v-800h1630v-1230h-2461l0,-0.00035c-781.02329,-0.54016 -1414,-633.85009 -1414,-1414.99965c0,-781.14956 632.97671,-1414.45949 1414,-1414.99965v-0.00035h2461v-1230h-2461l0,-0.00035c-781.02329,-0.54016 -1414,-633.85009 -1414,-1414.99965c0,-781.14956 632.97671,-1414.45949 1414,-1414.99965v-0.00035h2461v-1230h-2461l0,-0.00035c-781.02329,-0.54016 -1414,-633.85009 -1414,-1414.99965c0,-781.14956 632.97671,-1414.45949 1414,-1414.99965v-0.00035h2461v-1230h-2461l0,-0.00035c-781.02329,-0.54016 -1414,-633.85009 -1414,-1414.99965c0,-781.14956 632.97671,-1414.45949 1414,-1414.99965zM68800,36800c-339.65512,0 -615,275.34488 -615,615c0,339.65512 275.34488,615 615,615zM71260,40060c339.65512,0 615,-275.34488 615,-615c0,-339.65512 -275.34488,-615 -615,-615zM68800,40860c-339.65512,0 -615,275.34488 -615,615c0,339.65512 275.34488,615 615,615zM71260,44120c339.65512,0 615,-275.34488 615,-615c0,-339.65512 -275.34488,-615 -615,-615zM68800,44920c-339.65512,0 -615,275.34488 -615,615c0,339.65512 275.34488,615 615,615zM71260,48180c339.65512,0 615,-275.34488 615,-615c0,-339.65512 -275.34488,-615 -615,-615zM68800,48980c-339.65512,0 -615,275.34488 -615,615c0,339.65512 275.34488,615 615,615zM71260,52240c339.65512,0 615,-275.34488 615,-615c0,-339.65512 -275.34488,-615 -615,-615z" fill="#303f9f" stroke-width="1"/><path d="M38799,36000h1631v800h-1630v1230h2461v0.00035c781.02329,0.54016 1414,633.85009 1414,1414.99965c0,781.14956 -632.97671,1414.45949 -1414,1414.99965v0.00035h-2461v1230h2461v0.00035c781.02329,0.54016 1414,633.85009 1414,1414.99965c0,781.14956 -632.97671,1414.45949 -1414,1414.99965v0.00035h-2461v1230h2461v0.00035c781.02329,0.54016 1414,633.85009 1414,1414.99965c0,781.14956 -632.97671,1414.45949 -1414,1414.99965v0.00035h-2461v1230h2461v0.00035c781.02329,0.54016 1414,633.85009 1414,1414.99965c0,781.14956 -632.97671,1414.45949 -1414,1414.99965v0.00035h-1631v-800h1630v-1230h-2461v-0.00035c-781.02329,-0.54016 -1414,-633.85009 -1414,-1414.99965c0,-781.14956 632.97671,-1414.45949 1414,-1414.99965v-0.00035h2461v-1230h-2461v-0.00035c-781.02329,-0.54016 -1414,-633.85009 -1414,-1414.99965c0,-781.14956 632.97671,-1414.45949 1414,-1414.99965v-0.00035h2461v-1230h-2461v-0.00035c-781.02329,-0.54016 -1414,-633.85009 -1414,-1414.99965c0,-781.14956 632.97671,-1414.45949 1414,-1414.99965v-0.00035h2461v-1230h-2461v-0.00035c-781.02329,-0.54016 -1414,-633.85009 -1414,-1414.99965c0,-781.14956 632.97671,-1414.45949 1414,-1414.99965zM38800,36800c-339.65512,0 -615,275.34488 -615,615c0,339.65512 275.34488,615 615,615zM41260,40060c339.65512,0 615,-275.34488 615,-615c0,-339.65512 -275.34488,-615 -615,-615zM38800,40860c-339.65512,0 -615,275.34488 -615,615c0,339.65512 275.34488,615 615,615zM41260,44120c339.65512,0 615,-275.34488 615,-615c0,-339.65512 -275.34488,-615 -615,-615zM38800,44920c-339.65512,0 -615,275.34488 -615,615c0,339.65512 275.34488,615 615,615zM41260,48180c339.65512,0 615,-275.34488 615,-615c0,-339.65512 -275.34488,-615 -615,-615zM38800,48980c-339.65512,0 -615,275.34488 -615,615c0,339.65512 275.34488,615 615,615zM41260,52240c339.65512,0 615,-275.34488 615,-615c0,-339.65512 -275.34488,-615 -615,-615z" fill="#303f9f" stroke-width="1"/><path d="M99700,20500c0,-165.68542 134.31458,-300 300,-300v0c165.68542,0 300,134.31458 300,300v4500c0,165.68542 -134.31458,300 -300,300v0c-165.68542,0 -300,-134.31458 -300,-300z" fill="#303f9f" stroke-width="0"/><path d="M69700,20500c0,-165.68542 134.31458,-300 300,-300v0c165.68542,0 300,134.31458 300,300v4500c0,165.68542 -134.31458,300 -300,300v0c-165.68542,0 -300,-134.31458 -300,-300z" fill="#303f9f" stroke-width="0"/><path d="M39700,20500c0,-165.68542 134.31458,-300 300,-300v0c165.68542,0 300,134.31458 300,300v4500c0,165.68542 -134.31458,300 -300,300v0c-165.68542,0 -300,-134.31458 -300,-300z" fill="#303f9f" stroke-width="0"/><path d="M41000,20400v-800v0v800z" fill="#303f9f" stroke-width="0"/><path d="M135000,-400v800l-135000,0v-800z" fill="#303f9f" stroke-width="0"/><path d="M135400,85000h-800v-85000h800z" fill="#303f9f" stroke-width="0"/><path d="M0,85400v-800h135000v800z" fill="#303f9f" stroke-width="0"/><path d="M-400,0l800,0l0,85000h-800z" fill="#303f9f" stroke-width="0"/><path d="M39500,57500c0,-276.14237 223.85763,-500 500,-500v0c276.14237,0 500,223.85763 500,500v7500c0,276.14237 -223.85763,500 -500,500v0c-276.14237,0 -500,-223.85763 -500,-500z" fill="#303f9f" stroke-width="0"/><path d="M69500,57500c0,-276.14237 223.85763,-500 500,-500v0c276.14237,0 500,223.85763 500,500v7500c0,276.14237 -223.85763,500 -500,500v0c-276.14237,0 -500,-223.85763 -500,-500z" fill="#303f9f" stroke-width="0"/><path d="M99500,57500c0,-276.14237 223.85763,-500 500,-500v0c276.14237,0 500,223.85763 500,500v7500c0,276.14237 -223.85763,500 -500,500v0c-276.14237,0 -500,-223.85763 -500,-500z" fill="#303f9f" stroke-width="0"/><path d="M100200,56400c-165.68542,0 -300,-134.31458 -300,-300v0c0,-165.68542 134.31458,-300 300,-300h9800c165.68542,0 300,134.31458 300,300v0c0,165.68542 -134.31458,300 -300,300z" fill="#303f9f" stroke-width="0"/><path d="M100000,55800c165.68542,0 300,134.31458 300,300v0c0,165.68542 -134.31458,300 -300,300h-10000c-165.68542,0 -300,-134.31458 -300,-300v0c0,-165.68542 134.31458,-300 300,-300z" fill="#303f9f" stroke-width="0"/><path d="M70100,56400c-165.68542,0 -300,-134.31458 -300,-300v0c0,-165.68542 134.31458,-300 300,-300h9900c165.68542,0 300,134.31458 300,300v0c0,165.68542 -134.31458,300 -300,300z" fill="#303f9f" stroke-width="0"/><path d="M70200,55800c165.68542,0 300,134.31458 300,300v0c0,165.68542 -134.31458,300 -300,300h-10200c-165.68542,0 -300,-134.31458 -300,-300v0c0,-165.68542 134.31458,-300 300,-300z" fill="#303f9f" stroke-width="0"/><path d="M42800,55800c165.68542,0 300,134.31458 300,300v0c0,165.68542 -134.31458,300 -300,300h-12800c-165.68542,0 -300,-134.31458 -300,-300v0c0,-165.68542 134.31458,-300 300,-300z" fill="#303f9f" stroke-width="0"/><path d="M45100,55800c165.68542,0 300,134.31458 300,300v0c0,165.68542 -134.31458,300 -300,300h-1000c-165.68542,0 -300,-134.31458 -300,-300v0c0,-165.68542 134.31458,-300 300,-300z" fill="#303f9f" stroke-width="0"/><path d="M44900,56400c-165.68542,0 -300,-134.31458 -300,-300v0c0,-165.68542 134.31458,-300 300,-300h5100c165.68542,0 300,134.31458 300,300v0c0,165.68542 -134.31458,300 -300,300z" fill="#303f9f" stroke-width="0"/><path d="M109700,25000c0,-165.68542 134.31458,-300 300,-300v0c165.68542,0 300,134.31458 300,300v31000c0,165.68542 -134.31458,300 -300,300v0c-165.68542,0 -300,-134.31458 -300,-300z" fill="#303f9f" stroke-width="0"/><path d="M89700,25000c0,-165.68542 134.31458,-300 300,-300v0c165.68542,0 300,134.31458 300,300v31000c0,165.68542 -134.31458,300 -300,300v0c-165.68542,0 -300,-134.31458 -300,-300z" fill="#303f9f" stroke-width="0"/><path d="M79700,25000c0,-165.68542 134.31458,-300 300,-300v0c165.68542,0 300,134.31458 300,300v31000c0,165.68542 -134.31458,300 -300,300v0c-165.68542,0 -300,-134.31458 -300,-300z" fill="#303f9f" stroke-width="0"/><path d="M59700,25000c0,-165.68542 134.31458,-300 300,-300v0c165.68542,0 300,134.31458 300,300l0,31000c0,165.68542 -134.31458,300 -300,300v0c-165.68542,0 -300,-134.31458 -300,-300z" fill="#303f9f" stroke-width="0"/><path d="M49700,25000c0,-165.68542 134.31458,-300 300,-300v0c165.68542,0 300,134.31458 300,300v31000c0,165.68542 -134.31458,300 -300,300v0c-165.68542,0 -300,-134.31458 -300,-300z" fill="#303f9f" stroke-width="0"/><path d="M29700,25000c0,-165.68542 134.31458,-300 300,-300v0c165.68542,0 300,134.31458 300,300v31000c0,165.68542 -134.31458,300 -300,300v0c-165.68542,0 -300,-134.31458 -300,-300z" fill="#303f9f" stroke-width="0"/><path d="M40400,56400c-165.68542,0 -300,-134.31458 -300,-300v0c0,-165.68542 134.31458,-300 300,-300h4400c165.68542,0 300,134.31458 300,300v0c0,165.68542 -134.31458,300 -300,300z" fill="#303f9f" stroke-width="0"/><path d="M39600,53000c0,-220.9139 179.0861,-400 400,-400v0c220.9139,0 400,179.0861 400,400v3000c0,220.9139 -179.0861,400 -400,400v0c-220.9139,0 -400,-179.0861 -400,-400z" fill="#303f9f" stroke-width="0"/><path d="M99600,53000c0,-220.9139 179.0861,-400 400,-400v0c220.9139,0 400,179.0861 400,400v3000c0,220.9139 -179.0861,400 -400,400v0c-220.9139,0 -400,-179.0861 -400,-400z" fill="#303f9f" stroke-width="0"/><path d="M69600,53000c0,-220.9139 179.0861,-400 400,-400v0c220.9139,0 400,179.0861 400,400v3000c0,220.9139 -179.0861,400 -400,400v0c-220.9139,0 -400,-179.0861 -400,-400z" fill="#303f9f" stroke-width="0"/><path d="M99600,34000c0,-220.9139 179.0861,-400 400,-400v0c220.9139,0 400,179.0861 400,400v2000c0,220.9139 -179.0861,400 -400,400v0c-220.9139,0 -400,-179.0861 -400,-400z" fill="#303f9f" stroke-width="0"/><path d="M69600,34000c0,-220.9139 179.0861,-400 400,-400v0c220.9139,0 400,179.0861 400,400v2000c0,220.9139 -179.0861,400 -400,400v0c-220.9139,0 -400,-179.0861 -400,-400z" fill="#303f9f" stroke-width="0"/><path d="M39600,34000c0,-220.9139 179.0861,-400 400,-400v0c220.9139,0 400,179.0861 400,400v2000c0,220.9139 -179.0861,400 -400,400v0c-220.9139,0 -400,-179.0861 -400,-400z" fill="#303f9f" stroke-width="0"/><path d="M104400,34000c0,220.9139 -179.0861,400 -400,400v0c-220.9139,0 -400,-179.0861 -400,-400v-4000c0,-220.9139 179.0861,-400 400,-400v0c220.9139,0 400,179.0861 400,400z" fill="#303f9f" stroke-width="0"/><path d="M96000,34400c-220.9139,0 -400,-179.0861 -400,-400v0c0,-220.9139 179.0861,-400 400,-400h8000c220.9139,0 400,179.0861 400,400v0c0,220.9139 -179.0861,400 -400,400z" fill="#303f9f" stroke-width="0"/><path d="M95600,31000c0,-220.9139 179.0861,-400 400,-400v0c220.9139,0 400,179.0861 400,400v3000c0,220.9139 -179.0861,400 -400,400v0c-220.9139,0 -400,-179.0861 -400,-400z" fill="#303f9f" stroke-width="0"/><path d="M74400,34000c0,220.9139 -179.0861,400 -400,400v0c-220.9139,0 -400,-179.0861 -400,-400v-5000c0,-220.9139 179.0861,-400 400,-400v0c220.9139,0 400,179.0861 400,400z" fill="#303f9f" stroke-width="0"/><path d="M66000,34400c-220.9139,0 -400,-179.0861 -400,-400v0c0,-220.9139 179.0861,-400 400,-400h8000c220.9139,0 400,179.0861 400,400v0c0,220.9139 -179.0861,400 -400,400z" fill="#303f9f" stroke-width="0"/><path d="M65600,31000c0,-220.9139 179.0861,-400 400,-400v0c220.9139,0 400,179.0861 400,400v3000c0,220.9139 -179.0861,400 -400,400v0c-220.9139,0 -400,-179.0861 -400,-400z" fill="#303f9f" stroke-width="0"/><path d="M44400,34000c0,220.9139 -179.0861,400 -400,400v0c-220.9139,0 -400,-179.0861 -400,-400v-4000c0,-220.9139 179.0861,-400 400,-400v0c220.9139,0 400,179.0861 400,400z" fill="#303f9f" stroke-width="0"/><path d="M36000,34400c-220.9139,0 -400,-179.0861 -400,-400v0c0,-220.9139 179.0861,-400 400,-400h8000c220.9139,0 400,179.0861 400,400v0c0,220.9139 -179.0861,400 -400,400z" fill="#303f9f" stroke-width="0"/><path d="M35600,31000c0,-220.9139 179.0861,-400 400,-400v0c220.9139,0 400,179.0861 400,400v3000c0,220.9139 -179.0861,400 -400,400v0c-220.9139,0 -400,-179.0861 -400,-400z" fill="#303f9f" stroke-width="0"/><path d="M90000,25300c-165.68542,0 -300,-134.31458 -300,-300v0c0,-165.68542 134.31458,-300 300,-300h20000c165.68542,0 300,134.31458 300,300v0c0,165.68542 -134.31458,300 -300,300z" fill="#303f9f" stroke-width="0"/><path d="M60000,25300c-165.68542,0 -300,-134.31458 -300,-300v0c0,-165.68542 134.31458,-300 300,-300h20000c165.68542,0 300,134.31458 300,300v0c0,165.68542 -134.31458,300 -300,300z" fill="#303f9f" stroke-width="0"/><path d="M30000,25300c-165.68542,0 -300,-134.31458 -300,-300v0c0,-165.68542 134.31458,-300 300,-300h20000c165.68542,0 300,134.31458 300,300v0c0,165.68542 -134.31458,300 -300,300z" fill="#303f9f" stroke-width="0"/><path d="M101980,30000c0,-1115.61519 904.38481,-2020 2020,-2020c1115.61519,0 2020,904.38481 2020,2020c0,1115.61519 -904.38481,2020 -2020,2020c-1115.61519,0 -2020,-904.38481 -2020,-2020z" fill="url(#color-1)" stroke-width="1"/><path d="M93980,30000c0,-1115.61519 904.38481,-2020 2020,-2020c1115.61519,0 2020,904.38481 2020,2020c0,1115.61519 -904.38481,2020 -2020,2020c-1115.61519,0 -2020,-904.38481 -2020,-2020z" fill="url(#color-2)" stroke-width="1"/><path d="M71980,30000c0,-1115.61519 904.38481,-2020 2020,-2020c1115.61519,0 2020,904.38481 2020,2020c0,1115.61519 -904.38481,2020 -2020,2020c-1115.61519,0 -2020,-904.38481 -2020,-2020z" fill="url(#color-3)" stroke-width="1"/><path d="M63980,30000c0,-1115.61519 904.38481,-2020 2020,-2020c1115.61519,0 2020,904.38481 2020,2020c0,1115.61519 -904.38481,2020 -2020,2020c-1115.61519,0 -2020,-904.38481 -2020,-2020z" fill="url(#color-4)" stroke-width="1"/><path d="M41980,30000c0,-1115.61519 904.38481,-2020 2020,-2020c1115.61519,0 2020,904.38481 2020,2020c0,1115.61519 -904.38481,2020 -2020,2020c-1115.61519,0 -2020,-904.38481 -2020,-2020z" fill="url(#color-5)" stroke-width="1"/><path d="M33980,30000c0,-1115.61519 904.38481,-2020 2020,-2020c1115.61519,0 2020,904.38481 2020,2020c0,1115.61519 -904.38481,2020 -2020,2020c-1115.61519,0 -2020,-904.38481 -2020,-2020z" fill="url(#color-6)" stroke-width="1"/><path d="M37980,20000c0,-1115.61519 904.38481,-2020 2020,-2020c1115.61519,0 2020,904.38481 2020,2020c0,1115.61519 -904.38481,2020 -2020,2020c-1115.61519,0 -2020,-904.38481 -2020,-2020z" fill="url(#color-7)" stroke-width="1"/><path d="M67980,20000c0,-1115.61519 904.38481,-2020 2020,-2020c1115.61519,0 2020,904.38481 2020,2020c0,1115.61519 -904.38481,2020 -2020,2020c-1115.61519,0 -2020,-904.38481 -2020,-2020z" fill="url(#color-8)" stroke-width="1"/><path d="M97980,20000c0,-1115.61519 904.38481,-2020 2020,-2020c1115.61519,0 2020,904.38481 2020,2020c0,1115.61519 -904.38481,2020 -2020,2020c-1115.61519,0 -2020,-904.38481 -2020,-2020z" fill="url(#color-9)" stroke-width="1"/><path d="M97980,65000c0,-1115.61519 904.38481,-2020 2020,-2020c1115.61519,0 2020,904.38481 2020,2020c0,1115.61519 -904.38481,2020 -2020,2020c-1115.61519,0 -2020,-904.38481 -2020,-2020z" fill="url(#color-10)" stroke-width="1"/><path d="M67980,65000c0,-1115.61519 904.38481,-2020 2020,-2020c1115.61519,0 2020,904.38481 2020,2020c0,1115.61519 -904.38481,2020 -2020,2020c-1115.61519,0 -2020,-904.38481 -2020,-2020z" fill="url(#color-11)" stroke-width="1"/><path d="M37980,65000c0,-1115.61519 904.38481,-2020 2020,-2020c1115.61519,0 2020,904.38481 2020,2020c0,1115.61519 -904.38481,2020 -2020,2020c-1115.61519,0 -2020,-904.38481 -2020,-2020z" fill="url(#color-12)" stroke-width="1"/></g></svg>